<svg version="1.1" id="Layer_1" xmlns="http://www.w3.org/2000/svg" xmlns:xlink="http://www.w3.org/1999/xlink" x="0px" y="0px"
	 width="100%" viewBox="0 0 1990 502" enable-background="new 0 0 1990 502" xml:space="preserve">
<path fill="#000000" opacity="1.000000" stroke="none" 
	d="
M1438.000000,503.000000 
	C958.666687,503.000000 479.833344,503.000000 1.000000,503.000000 
	C1.000000,335.666656 1.000000,168.333328 1.000000,1.000000 
	C664.333313,1.000000 1327.666626,1.000000 1991.000000,1.000000 
	C1991.000000,168.333328 1991.000000,335.666656 1991.000000,503.000000 
	C1806.833374,503.000000 1622.666626,503.000000 1438.000000,503.000000 
M1866.185181,245.268356 
	C1871.091675,243.840179 1876.253418,242.962921 1880.837036,240.838181 
	C1886.041626,238.425537 1891.004028,235.254623 1895.561401,231.749695 
	C1899.856079,228.446609 1899.152954,221.639786 1894.746094,214.305161 
	C1888.799927,204.408203 1882.863770,194.501205 1877.179688,184.453430 
	C1875.421143,181.344955 1873.144043,180.226089 1869.771118,179.939728 
	C1862.812012,179.348938 1857.908447,183.698990 1852.700562,186.959442 
	C1845.893311,191.221115 1839.284790,195.842209 1831.412964,197.818832 
	C1823.594604,199.782059 1817.473267,204.215988 1811.795654,209.626205 
	C1810.322876,211.029739 1808.408569,212.042648 1806.563354,212.968552 
	C1801.510254,215.504150 1795.137329,221.444595 1795.889160,228.306213 
	C1796.709595,235.793060 1796.809082,243.371613 1796.961792,250.915466 
	C1797.129639,259.215485 1797.119385,267.523865 1796.958862,275.824188 
	C1796.847900,281.561523 1797.104492,287.469849 1795.802368,292.971832 
	C1794.622681,297.956818 1791.466797,302.456604 1789.379395,307.256134 
	C1788.827881,308.524170 1788.514282,310.319672 1789.011353,311.478180 
	C1789.373413,312.321625 1791.243042,312.895569 1792.448120,312.909332 
	C1794.173340,312.928986 1795.909546,312.345886 1797.634033,311.987091 
	C1799.534546,311.591736 1801.441406,310.748657 1803.320923,310.813629 
	C1811.322998,311.090210 1816.763550,316.173370 1821.835938,321.512817 
	C1827.543457,327.520691 1833.314819,333.401855 1840.930542,336.958069 
	C1845.462769,339.074432 1852.725830,338.526764 1857.328247,334.288788 
	C1861.375000,330.562347 1865.943115,327.403748 1870.263794,323.972656 
	C1875.479248,319.831116 1880.748535,315.752625 1885.855591,311.480835 
	C1889.047485,308.810913 1891.596802,305.157074 1895.120483,303.148590 
	C1900.937378,299.833130 1906.264893,296.507202 1908.014404,288.486969 
	C1906.244141,288.313843 1904.144897,287.428650 1902.978516,288.119141 
	C1899.142456,290.389954 1895.183472,292.786011 1892.119507,295.953949 
	C1886.874268,301.376984 1881.588013,305.864044 1873.461548,306.089508 
	C1864.988403,306.324554 1859.053589,301.693939 1852.956299,296.917419 
	C1849.321777,294.070282 1845.669189,291.012421 1841.542358,289.078339 
	C1834.078003,285.579987 1832.537964,272.788971 1837.889771,268.522186 
	C1839.368042,267.343658 1840.713745,265.666931 1841.395386,263.933685 
	C1841.879395,262.702820 1841.649170,260.054688 1840.879395,259.642731 
	C1832.987061,255.418686 1834.408203,247.804535 1834.123169,241.072540 
	C1833.873901,235.184158 1834.641846,229.250015 1835.008179,223.339050 
	C1835.301880,218.603409 1835.542725,213.859146 1836.037598,209.142883 
	C1836.484375,204.882446 1839.002319,202.171829 1843.318970,202.087753 
	C1847.143066,202.013260 1848.832886,204.500992 1850.157104,208.150558 
	C1852.365601,214.236679 1855.264404,220.130676 1858.426270,225.796539 
	C1861.792847,231.829208 1866.831055,237.148300 1864.148438,244.994186 
	C1858.932983,244.876770 1858.373291,249.542694 1855.070923,252.682648 
	C1861.153320,252.752914 1863.320557,249.215240 1866.185181,245.268356 
M247.229965,228.979248 
	C248.919937,227.720016 251.034576,226.771225 252.223068,225.145401 
	C256.370178,219.472290 261.969971,216.026184 268.066284,212.777756 
	C271.365845,211.019592 274.055573,207.478607 276.104553,204.174011 
	C278.640961,200.083252 276.755707,194.201645 273.317169,194.087616 
	C265.661591,193.833740 257.884613,193.208191 250.352615,194.207611 
	C239.101471,195.700516 227.935608,196.446198 216.717773,194.862595 
	C214.726288,194.581451 211.780060,192.861130 211.363037,191.261063 
	C210.356888,187.400650 210.380997,183.218887 210.366440,179.165375 
	C210.345215,173.263092 210.660202,167.359756 210.821808,161.456619 
	C210.949188,156.803970 210.603073,152.068848 211.413864,147.539810 
	C211.723206,145.811844 214.981995,143.064468 216.356705,143.353104 
	C221.273270,144.385468 226.371429,145.828857 230.644882,148.382095 
	C239.486404,153.664612 248.389420,155.037216 256.776093,148.862457 
	C264.701569,143.027252 271.730438,135.962845 279.022003,129.295151 
	C279.786560,128.595993 280.185150,126.707214 279.795807,125.767014 
	C279.436981,124.900597 277.844727,124.294762 276.696075,124.057922 
	C274.336670,123.571457 271.624207,124.002502 269.562073,123.008362 
	C261.184021,118.969315 253.090897,114.339310 244.712646,110.300766 
	C236.789978,106.481812 228.820129,102.307938 219.789078,102.080872 
	C209.462509,101.821243 201.175751,107.406761 192.885330,112.644554 
	C190.293030,114.282356 187.876877,116.196259 185.336334,117.919273 
	C179.497360,121.879303 172.615219,124.890419 168.056137,129.986252 
	C163.288681,135.315063 158.514526,136.661469 151.626328,135.637192 
	C152.185211,134.395615 152.431686,133.273544 153.086426,132.494690 
	C155.682846,129.406097 158.588684,126.560768 160.998016,123.339684 
	C162.023392,121.968864 162.689850,119.782143 162.380066,118.187531 
	C162.221558,117.371559 159.221695,116.202133 158.076172,116.650185 
	C154.381775,118.095146 150.777634,119.952751 147.462555,122.141731 
	C142.841232,125.193222 138.571167,128.770752 134.043640,131.971619 
	C128.258896,136.061325 121.886848,139.457764 116.625320,144.120514 
	C106.697586,152.918381 99.123001,163.761658 94.549644,176.198578 
	C90.690208,186.694046 86.024712,197.562820 85.478035,208.455170 
	C84.581100,226.326324 82.624718,244.524963 88.816254,262.270264 
	C92.346962,272.389496 94.160858,283.516327 100.816818,291.868835 
	C109.403862,302.644653 119.195908,312.679779 129.617386,321.708313 
	C138.798050,329.661835 150.105743,334.650909 161.942947,338.047974 
	C172.951248,341.207092 184.127411,342.532806 195.575500,343.271942 
	C205.592499,343.918640 214.944473,342.150543 223.719284,338.413666 
	C233.105011,334.416748 242.323822,329.476410 250.572418,323.506622 
	C259.929535,316.734528 269.187347,309.058563 273.476257,297.791656 
	C276.999390,288.536530 279.371704,278.822510 281.815979,269.200562 
	C282.173370,267.793732 280.469818,264.950165 279.025085,264.288513 
	C277.875671,263.762054 275.198608,265.112701 274.003174,266.384949 
	C266.962982,273.877777 260.876434,282.450348 253.066696,288.983276 
	C245.656570,295.181915 236.877075,300.098663 228.033508,304.110504 
	C221.557800,307.048218 213.921692,309.488678 207.337280,303.761444 
	C211.676071,293.236603 210.728424,282.297089 209.636200,271.894318 
	C208.358994,259.729462 209.775833,248.129913 212.293793,236.478241 
	C213.100571,232.744873 216.414780,231.323990 219.944916,232.098389 
	C229.183685,234.125061 237.978500,233.206421 247.229965,228.979248 
M1574.999878,220.715118 
	C1576.191162,217.784637 1577.125732,214.711731 1578.649048,211.965378 
	C1580.058105,209.425247 1582.700439,208.898956 1585.286255,210.071945 
	C1591.715576,212.988297 1598.224121,215.799683 1604.362793,219.253876 
	C1606.996338,220.735657 1610.317627,223.486328 1610.689575,226.044113 
	C1611.976685,234.891068 1612.434937,243.900986 1612.590210,252.859589 
	C1612.791138,264.457489 1612.591553,276.072418 1612.189575,287.666992 
	C1611.940918,294.841644 1611.104614,302.003784 1610.337158,309.150635 
	C1609.307739,318.737396 1609.947144,327.069122 1619.939941,332.024506 
	C1622.812378,333.449005 1625.613037,335.063507 1628.287598,336.831635 
	C1633.204712,340.082428 1638.128784,339.565491 1642.764526,336.671539 
	C1651.499146,331.219055 1659.694214,324.794800 1668.775513,320.038025 
	C1676.618286,315.929871 1684.253906,309.855652 1694.445923,312.889069 
	C1699.044312,314.257660 1703.625000,314.822327 1706.809204,319.166870 
	C1709.614746,322.994629 1712.776855,326.733124 1716.421509,329.733765 
	C1722.108276,334.415802 1728.499390,338.378601 1736.290527,334.820587 
	C1742.250610,332.098755 1748.161499,329.119659 1753.642944,325.560181 
	C1756.567261,323.661255 1760.647095,320.155121 1760.484863,317.611755 
	C1760.171143,312.694855 1754.790894,311.904236 1750.437500,310.963806 
	C1743.412354,309.446198 1740.822144,306.085663 1741.037842,298.664551 
	C1741.161621,294.410553 1741.938843,290.168701 1741.954956,285.919586 
	C1742.047485,261.593719 1741.999878,237.267288 1742.000122,212.941055 
	C1742.000122,205.868073 1744.484497,203.472977 1751.495117,202.938354 
	C1756.819336,202.532333 1762.257812,202.100235 1767.329834,200.607315 
	C1769.613770,199.935028 1771.128296,196.648712 1772.991943,194.548477 
	C1770.558350,192.699203 1768.354736,189.838287 1765.641235,189.221603 
	C1760.737183,188.107101 1755.527710,188.345367 1750.447388,187.996460 
	C1743.574097,187.524475 1739.663086,183.192551 1740.150757,177.291641 
	C1740.692627,170.735046 1740.960205,164.136444 1740.931641,157.557938 
	C1740.907349,151.964523 1737.181274,149.962265 1733.020874,153.648636 
	C1725.375000,160.423218 1718.211060,167.755264 1711.028809,175.035080 
	C1704.917969,181.228851 1701.005249,189.422867 1692.859741,193.860397 
	C1690.020508,195.407211 1686.719116,198.806122 1686.488892,201.595459 
	C1686.301270,203.864960 1690.130737,206.792297 1692.642090,208.866898 
	C1695.157349,210.944794 1698.061157,212.290878 1698.072388,216.294312 
	C1698.082764,220.027557 1698.894043,223.755051 1698.963013,227.492264 
	C1699.371582,249.643234 1699.738403,271.795563 1699.968018,293.948975 
	C1700.073730,304.133972 1691.195801,310.806793 1681.199585,309.135742 
	C1674.921631,308.086243 1668.322388,307.486237 1662.048340,308.223999 
	C1652.262329,309.374695 1648.023682,306.457611 1648.005615,296.652039 
	C1647.982178,283.822479 1647.904053,270.991791 1648.045654,258.163757 
	C1648.105347,252.743378 1648.959595,247.326660 1648.926025,241.911545 
	C1648.880127,234.492981 1648.101074,227.077316 1648.106934,219.660782 
	C1648.109497,216.393097 1649.214355,213.367554 1653.607178,212.865463 
	C1656.015747,212.590179 1658.378784,211.202515 1660.555176,209.954910 
	C1661.453003,209.440292 1662.544922,207.618637 1662.254150,207.019852 
	C1661.656738,205.789429 1660.206299,204.185028 1659.072632,204.157669 
	C1656.196289,204.088272 1653.201782,204.466782 1650.435791,205.281540 
	C1645.917847,206.612442 1641.571167,206.640961 1638.052124,203.458313 
	C1633.473389,199.317612 1628.472168,195.235641 1625.215576,190.131287 
	C1619.487061,181.152878 1605.619019,181.252243 1599.523071,185.375275 
	C1593.009399,189.780899 1587.637817,195.942200 1582.041504,201.607666 
	C1579.396362,204.285522 1576.986938,204.460251 1573.744385,203.026398 
	C1568.411377,200.668137 1565.069702,196.286346 1562.334717,191.603088 
	C1558.796509,185.544479 1554.223145,181.548859 1547.061523,183.164459 
	C1542.838257,184.117157 1538.707397,186.266190 1535.020874,188.633789 
	C1528.766968,192.650040 1522.844482,197.194031 1516.891113,201.660843 
	C1514.353149,203.565201 1512.207275,206.396683 1514.201172,209.366562 
	C1515.272217,210.962173 1518.350464,211.481033 1520.632935,211.943954 
	C1528.701294,213.580475 1536.510742,216.058151 1536.148193,228.630356 
	C1535.586548,248.108490 1536.100098,267.615509 1535.944702,287.108612 
	C1535.891724,293.748566 1535.177979,300.291687 1532.034546,306.466339 
	C1528.421265,313.564117 1529.119629,318.233856 1535.082886,323.379852 
	C1540.940552,328.434662 1547.330811,332.934570 1553.810425,337.185608 
	C1558.630005,340.347534 1564.374146,339.698273 1568.596069,335.786865 
	C1572.201538,332.446838 1575.755981,328.867218 1578.495117,324.825714 
	C1581.635254,320.192780 1582.824707,314.981171 1578.544312,309.971649 
	C1577.749756,309.041718 1577.164795,307.675659 1577.053467,306.458740 
	C1575.966309,294.572937 1574.533936,282.692261 1574.119629,270.778137 
	C1573.616089,256.299866 1573.963501,241.790543 1574.044067,227.295227 
	C1574.054565,225.391556 1574.663574,223.491211 1574.999878,220.715118 
M1289.999390,188.492493 
	C1288.069824,189.974899 1286.298828,191.755066 1284.180176,192.882141 
	C1278.578979,195.861969 1272.481201,198.033997 1267.222534,201.500748 
	C1260.601807,205.865555 1254.674072,211.270081 1248.341797,216.087524 
	C1243.220215,219.983917 1240.607300,225.058517 1241.064697,231.424118 
	C1241.376831,235.769363 1243.028931,240.110138 1242.797974,244.383514 
	C1242.315308,253.310745 1240.485718,262.172943 1240.142944,271.097717 
	C1239.814453,279.651215 1240.591064,288.254364 1241.072388,296.824951 
	C1241.156738,298.325714 1242.091187,299.817657 1242.786011,301.238770 
	C1246.852661,309.554932 1254.649292,314.541748 1260.719116,321.063538 
	C1262.640503,323.127930 1265.314209,324.647491 1267.891602,325.910736 
	C1272.171997,328.008820 1276.712524,329.570374 1281.036255,331.587616 
	C1288.534546,335.085907 1299.766357,332.228210 1304.268555,325.206116 
	C1307.155640,320.703308 1309.551880,315.885803 1312.865356,309.963013 
	C1313.341187,312.871277 1313.692871,314.880829 1313.994995,316.897827 
	C1314.496948,320.247711 1314.268799,323.929382 1315.643799,326.864502 
	C1317.061401,329.891022 1321.158936,331.847168 1322.084839,334.881592 
	C1324.184326,341.761993 1326.846680,349.229462 1326.036133,356.074005 
	C1324.553711,368.590179 1313.487793,370.803650 1306.656494,361.188293 
	C1306.085938,360.385162 1305.336792,359.655548 1304.535645,359.079224 
	C1301.663940,357.013550 1298.926025,353.698761 1295.792847,353.247162 
	C1283.397095,351.460510 1270.924194,350.203400 1259.007812,356.367249 
	C1254.136353,358.887054 1248.192139,359.500244 1243.614258,362.378021 
	C1238.028076,365.889740 1231.540039,369.110138 1229.755127,376.609467 
	C1229.064575,379.510986 1231.302734,383.492004 1233.604126,382.792786 
	C1240.242676,380.775848 1247.058228,380.947754 1253.791016,380.181519 
	C1265.286621,378.873322 1272.994263,384.949615 1280.741333,390.908783 
	C1284.040405,393.446472 1286.769409,394.990814 1290.051880,393.257721 
	C1294.124756,391.107239 1297.655396,387.929443 1301.419556,385.194427 
	C1310.509888,378.589478 1321.645264,374.857452 1328.891846,365.649078 
	C1329.161377,365.306610 1329.751343,365.231903 1330.161011,364.981659 
	C1338.910034,359.638031 1347.697388,354.355316 1356.384277,348.912476 
	C1361.773193,345.536072 1365.288574,340.278198 1364.756592,334.168427 
	C1363.951904,324.924530 1362.500610,315.549286 1359.761719,306.714172 
	C1357.008789,297.833588 1356.541138,289.213287 1356.779785,280.035980 
	C1357.218628,263.156067 1356.193726,246.242584 1356.088867,229.341156 
	C1356.059204,224.551834 1356.628662,219.771530 1360.436401,215.839905 
	C1362.815308,213.383438 1364.461792,210.084198 1365.944946,206.931641 
	C1367.372559,203.897171 1365.827881,201.567688 1362.596924,202.154160 
	C1359.287354,202.754944 1355.725220,203.996811 1353.157593,206.058701 
	C1350.787842,207.961777 1349.290894,207.777512 1347.630981,206.041534 
	C1344.337524,202.597092 1341.560913,198.600342 1337.999878,195.484161 
	C1333.241699,191.320557 1328.412109,186.731995 1322.773071,184.188995 
	C1311.644043,179.170319 1300.759521,182.074295 1289.999390,188.492493 
M683.970276,189.457108 
	C681.854553,187.943314 679.903503,185.496384 677.592590,185.088547 
	C670.297791,183.801132 662.742371,181.131165 656.894226,189.352234 
	C652.476562,195.562195 645.482849,198.640335 638.314026,201.121063 
	C636.633057,201.702759 635.031494,203.492233 634.237610,205.134201 
	C633.955627,205.717422 635.995483,207.783661 637.310120,208.684326 
	C638.845337,209.736084 640.681458,210.531906 642.499634,210.957581 
	C654.187378,213.693893 655.230225,214.782532 656.320496,226.917480 
	C656.499756,228.912201 656.018494,230.956955 656.015869,232.978806 
	C655.989807,253.283707 656.181702,273.591248 655.891968,293.892029 
	C655.802124,300.189392 654.816528,306.548065 653.535522,312.732513 
	C652.364502,318.386108 653.106262,323.615479 657.596497,326.808899 
	C662.868042,330.558044 669.086487,332.971405 674.878784,335.993805 
	C680.948486,339.160950 686.491638,338.236969 692.105713,334.509491 
	C706.265442,325.108246 708.494507,316.460022 700.435730,302.689636 
	C698.559753,299.483978 697.422791,295.490967 697.170044,291.776947 
	C696.828003,286.749298 697.993347,281.637878 697.940430,276.568329 
	C697.764954,259.750854 697.319519,242.936356 697.008362,226.120132 
	C696.914062,221.029663 698.054382,215.801132 702.537476,213.352325 
	C714.732910,206.690765 728.847778,215.699280 731.310425,223.959015 
	C732.453674,227.793304 732.752319,231.949677 732.945129,235.983414 
	C733.441467,246.368011 733.783142,256.763611 733.963074,267.158691 
	C734.127563,276.663269 734.302429,286.186920 733.865356,295.674164 
	C733.662720,300.072662 732.393555,304.536316 730.926331,308.732117 
	C729.264099,313.485748 728.502869,317.918640 731.157715,322.514801 
	C735.933167,330.782074 743.647461,334.968506 752.249451,338.013153 
	C757.826294,339.987091 763.496094,339.539246 768.023926,336.229797 
	C777.110474,329.588318 785.657227,322.206543 794.395813,315.092377 
	C796.054749,313.741882 797.570801,312.215912 800.101257,309.904510 
	C793.213257,308.792664 787.660828,307.154480 782.112061,307.166656 
	C772.711914,307.187317 770.001038,305.076233 770.000427,295.606354 
	C769.999023,274.134918 770.326355,252.656021 769.835266,231.195816 
	C769.645630,222.908234 771.855469,216.493286 778.162476,211.208115 
	C780.027771,209.645035 781.194214,207.248062 782.680908,205.233231 
	C782.403503,204.614944 782.126099,203.996658 781.848755,203.378387 
	C779.191528,203.590805 776.534363,203.804230 773.877075,204.015366 
	C771.000061,204.243942 768.001526,205.102982 765.268616,204.578659 
	C757.206055,203.031815 751.318604,198.673431 746.610168,191.497406 
	C737.463806,177.557632 729.385437,177.932114 716.392639,189.302002 
	C711.720276,193.390762 708.006042,198.594879 703.981628,203.396515 
	C701.368042,206.514862 697.085693,207.034088 694.390198,203.750336 
	C690.815613,199.395462 687.772766,194.604111 683.970276,189.457108 
M1108.844238,308.974976 
	C1103.024292,306.608551 1100.043091,302.164886 1100.033569,296.001923 
	C1099.969116,254.299866 1100.000000,212.597672 1100.000000,170.895508 
	C1100.000000,148.942795 1100.030273,126.989998 1099.975464,105.037422 
	C1099.963989,100.445320 1097.007568,98.788101 1092.703125,100.796440 
	C1082.401733,105.602661 1073.226685,111.962158 1064.685181,119.535660 
	C1059.694458,123.960686 1053.405151,126.921104 1046.516602,131.291153 
	C1047.241821,133.108963 1047.725464,136.807083 1049.792480,139.037857 
	C1056.116699,145.862946 1058.921997,153.211807 1058.572876,162.803650 
	C1057.957031,179.719299 1058.717651,196.688400 1059.019897,213.633026 
	C1059.253174,226.714203 1059.946167,239.793411 1059.887207,252.871033 
	C1059.855713,259.870850 1058.454346,266.853699 1058.065918,273.866089 
	C1057.743896,279.678741 1058.084473,285.524963 1057.976807,291.353485 
	C1057.862793,297.529205 1056.390381,302.805786 1049.222290,304.466156 
	C1047.976074,304.754791 1046.133179,306.606934 1046.229980,307.569550 
	C1046.370361,308.964966 1047.765991,310.636749 1049.083862,311.436859 
	C1053.313721,314.004883 1058.040161,315.824615 1062.044312,318.678040 
	C1067.764282,322.754181 1072.803955,327.784576 1078.521851,331.864044 
	C1084.896240,336.412018 1093.319092,335.558838 1099.597168,330.979187 
	C1105.821045,326.439240 1112.392334,322.378021 1118.716187,317.970490 
	C1119.731323,317.262970 1120.744141,315.882080 1120.835693,314.738617 
	C1120.904541,313.878326 1119.680054,312.458221 1118.712280,312.056519 
	C1115.775757,310.837738 1112.684204,309.992645 1108.844238,308.974976 
M464.000061,221.810791 
	C464.545258,227.620056 462.232697,233.944412 467.313110,239.472458 
	C468.401733,238.635696 469.324249,237.775787 470.381378,237.139435 
	C475.774139,233.893173 478.064606,226.750488 485.015594,225.485596 
	C487.916992,224.957611 490.839783,224.542633 493.732941,223.974899 
	C498.177216,223.102798 501.449432,224.818405 501.898010,229.270020 
	C502.619812,236.433151 503.509888,243.750229 502.785431,250.844666 
	C501.892792,259.586212 499.595886,268.208435 497.555450,276.798950 
	C496.469818,281.369659 494.644592,285.764679 492.678314,291.663818 
	C496.260162,290.854309 498.157684,290.682739 499.847107,289.997894 
	C506.210754,287.417938 512.604797,284.878235 518.807068,281.942444 
	C530.934021,276.202209 539.634521,267.266266 540.839783,253.429718 
	C541.929810,240.915802 541.528931,228.278534 542.030273,215.705429 
	C542.923279,193.310028 539.487549,170.727386 544.983337,148.526703 
	C547.245117,139.389954 550.474915,130.738083 557.479736,124.117287 
	C561.536255,120.283173 566.095398,116.984642 570.213379,113.210548 
	C573.348206,110.337524 575.672363,106.256050 579.226013,104.255905 
	C582.702576,102.299149 581.418396,101.049568 580.521545,99.078323 
	C578.576538,99.707649 576.974792,100.637444 575.344971,100.689369 
	C559.725952,101.186966 544.959839,96.285034 529.819702,93.631432 
	C522.368103,92.325409 514.338379,92.702454 506.808197,93.862282 
	C496.992493,95.374107 488.008270,99.616699 480.743347,106.775040 
	C476.413971,111.040947 471.737457,115.046120 467.991699,119.781319 
	C465.396362,123.062218 464.122162,127.388199 462.257629,131.247208 
	C462.698425,131.628738 463.139191,132.010269 463.579987,132.391785 
	C490.220795,124.586678 517.033264,127.934555 544.770996,130.224655 
	C543.256958,132.253738 542.532471,134.140808 541.179260,134.885498 
	C533.912598,138.884491 526.607849,142.855133 519.084229,146.333801 
	C512.671082,149.299072 509.154724,154.556686 507.258820,160.739075 
	C505.519073,166.412430 505.171021,172.499069 503.950409,178.349518 
	C503.033997,182.741852 502.017487,187.210266 497.216675,189.330460 
	C490.689026,192.213303 484.067963,194.927048 477.744385,198.209198 
	C475.143188,199.559311 473.108276,202.099426 470.997223,204.274368 
	C466.526550,208.880432 465.076477,214.818741 464.000061,221.810791 
M359.440002,304.958527 
	C358.626678,302.408630 357.109467,299.860413 357.103424,297.308594 
	C356.968384,240.490417 356.983032,183.671829 357.042114,126.853386 
	C357.045685,123.434898 357.932526,120.015602 357.914795,116.599236 
	C357.891968,112.200089 357.267273,107.807617 357.093018,103.404701 
	C356.921906,99.079552 353.770966,99.323105 351.475952,100.348099 
	C346.658234,102.499771 341.910858,105.014877 337.592072,108.035011 
	C328.429047,114.442741 319.423615,121.098236 310.655945,128.034378 
	C308.220764,129.960876 306.802124,133.198593 304.997589,135.888748 
	C303.165375,138.620270 304.762573,140.137161 307.173584,140.952911 
	C314.805695,143.535156 315.999146,145.104431 315.999420,153.202011 
	C316.000732,195.357681 316.035095,237.513397 315.955505,279.668915 
	C315.945557,284.920074 315.692596,290.227295 314.881073,295.403290 
	C314.181854,299.863098 312.547943,304.250397 308.463348,306.927826 
	C306.745728,308.053772 304.675842,308.642303 301.900696,309.852539 
	C308.872894,313.731323 314.966309,316.895874 320.825043,320.447632 
	C326.067871,323.625946 331.543976,326.691956 336.026703,330.783203 
	C341.722687,335.981720 348.985718,337.663910 355.328430,332.247681 
	C359.078461,329.045441 362.821320,325.822968 366.731628,322.823700 
	C370.138031,320.210968 373.774750,317.898499 378.630859,314.539429 
	C371.643738,311.151245 365.827911,308.331055 359.440002,304.958527 
M924.015869,213.483871 
	C922.679504,216.184006 920.388916,218.809021 920.169373,221.597092 
	C919.135315,234.730377 918.324158,247.902664 918.106445,261.072174 
	C917.923279,272.145966 919.072449,283.245087 918.799805,294.312469 
	C918.691101,298.722107 916.712891,303.239777 914.869812,307.390320 
	C913.887024,309.603302 911.377747,311.138458 909.557495,312.979553 
	C909.789246,313.362274 910.020996,313.744995 910.252686,314.127747 
	C914.245300,313.655640 918.451172,312.159180 922.183594,312.936462 
	C928.831787,314.320953 935.275696,316.867981 941.651245,319.327423 
	C947.560608,321.606995 952.000549,325.743469 955.660828,331.024902 
	C960.222046,337.606476 968.287842,340.671478 974.012024,337.161591 
	C981.423157,332.617188 988.291199,327.040192 994.845215,321.284027 
	C1002.129089,314.886749 1008.965698,308.115295 1017.940552,303.885773 
	C1024.107544,300.979584 1030.645386,297.873627 1030.933594,289.184174 
	C1024.886841,288.188629 1020.186890,291.471069 1015.594482,294.129730 
	C1010.304993,297.191986 1005.737976,301.483551 1000.522278,304.697754 
	C996.441223,307.212830 991.718628,307.473755 987.453064,304.872894 
	C980.720886,300.768066 974.312195,296.118195 967.484680,292.188812 
	C961.167297,288.552948 957.706665,283.747101 957.944702,276.248230 
	C958.187805,268.591705 958.955261,260.768768 957.778259,253.288498 
	C955.351868,237.867004 955.247986,222.616577 958.101501,207.332443 
	C958.391357,205.779892 959.961182,203.251587 960.876892,203.277817 
	C962.924438,203.336533 965.453918,204.214874 966.862854,205.660309 
	C971.363586,210.277420 975.008789,215.792587 979.792542,220.053650 
	C986.006470,225.588669 988.329651,231.929749 987.078674,239.981491 
	C986.617004,242.953262 986.810242,245.894699 991.338806,244.021362 
	C999.885315,240.486023 1008.551819,237.222580 1016.984375,233.436295 
	C1023.126160,230.678619 1024.263794,225.750092 1020.518616,220.014877 
	C1017.086121,214.758377 1013.294739,209.729874 1010.000366,204.391769 
	C1007.591919,200.489182 1004.537781,196.961761 1004.815186,191.619873 
	C1005.043701,187.219391 996.707520,180.351685 992.597168,181.137161 
	C983.743896,182.828934 975.745422,186.736984 968.051208,191.378174 
	C963.994446,193.825195 959.736145,195.981567 955.418213,197.936554 
	C952.690552,199.171509 949.478027,199.394455 946.843201,200.764252 
	C939.340698,204.664780 932.022827,208.920380 924.015869,213.483871 
M1488.618042,288.922150 
	C1486.068237,291.053589 1482.794434,292.731873 1481.118164,295.410065 
	C1477.534180,301.135895 1472.456665,304.406921 1466.630371,307.319031 
	C1464.195312,308.536102 1462.559204,308.309753 1460.738037,307.193024 
	C1451.993896,301.830841 1443.155640,296.596405 1434.676025,290.837677 
	C1429.681885,287.445892 1426.122192,283.060272 1426.848999,276.009155 
	C1427.545044,269.256531 1427.298096,262.358887 1426.928345,255.554123 
	C1426.135986,240.972092 1424.995850,226.408966 1424.000732,211.837936 
	C1423.689697,207.284195 1425.870728,203.497482 1429.780029,202.264297 
	C1433.797119,200.997116 1436.411499,204.303223 1438.437988,207.818466 
	C1441.648071,213.386963 1444.526733,219.404694 1448.848145,224.010254 
	C1454.490601,230.023743 1457.071777,236.895660 1458.460083,244.844604 
	C1463.806519,245.308624 1468.913574,245.038788 1473.503418,241.230652 
	C1476.180420,239.009567 1479.540894,237.620026 1482.564453,235.807419 
	C1492.991699,229.556122 1491.130615,221.890564 1485.765991,213.179276 
	C1481.250854,205.847397 1477.090210,198.289383 1472.972900,190.722458 
	C1468.053589,181.681870 1461.986084,175.864273 1450.951904,183.057785 
	C1446.184204,186.165939 1441.881592,189.980392 1437.183716,193.205826 
	C1435.248169,194.534576 1432.859741,195.241531 1430.622192,196.084824 
	C1424.697754,198.317551 1418.499146,199.981277 1412.868774,202.791382 
	C1407.158203,205.641632 1401.787842,209.316010 1396.680298,213.174438 
	C1394.002808,215.197144 1391.444946,218.082825 1390.223755,221.135193 
	C1388.946655,224.327698 1389.064941,228.186172 1389.045898,231.756027 
	C1388.947266,250.237747 1389.023438,268.720337 1388.961670,287.202362 
	C1388.955811,288.942902 1388.617554,290.747192 1388.082275,292.408722 
	C1386.572998,297.093933 1384.739868,301.677155 1383.301636,306.382202 
	C1381.992310,310.664734 1383.850098,312.997925 1388.405762,312.953094 
	C1390.158569,312.935883 1391.895142,312.257568 1393.658325,312.112701 
	C1397.814453,311.771240 1401.780151,311.659119 1404.170776,316.310760 
	C1405.188843,318.291840 1407.065186,320.037109 1408.934937,321.338623 
	C1416.066040,326.302338 1423.122681,331.448547 1430.663696,335.720642 
	C1435.619751,338.528168 1441.192383,339.539124 1446.469482,335.175385 
	C1451.351929,331.137878 1457.132202,328.078430 1461.570923,323.641632 
	C1466.203003,319.011627 1472.957886,316.968842 1476.215698,310.577820 
	C1477.474609,308.108093 1480.915283,306.724884 1483.413818,304.918274 
	C1488.529297,301.219391 1495.960693,300.565399 1498.633911,293.744965 
	C1499.344482,291.931885 1499.526978,289.261902 1498.655029,287.717407 
	C1498.113770,286.758575 1495.120850,286.949432 1493.251709,287.051575 
	C1491.857422,287.127777 1490.500366,287.888092 1488.618042,288.922150 
M882.491272,189.000000 
	C879.492554,188.999802 876.485046,189.149033 873.496826,188.971680 
	C864.085266,188.413162 859.847778,184.346649 861.005249,177.250565 
	C861.734863,172.777328 861.877014,168.150543 863.118164,163.832779 
	C864.754944,158.138794 862.671570,154.995300 856.745605,153.066818 
	C854.018677,155.105072 850.116211,156.969452 847.703064,160.014206 
	C838.844055,171.192062 828.169739,180.405457 817.170654,189.260696 
	C810.079224,194.969925 809.784668,197.261185 813.820129,205.803024 
	C816.920837,212.366486 819.875854,219.429260 820.722412,226.529114 
	C822.088623,237.986572 821.787720,249.655396 821.964600,261.238403 
	C822.129700,272.048096 822.049622,282.862610 821.980713,293.674408 
	C821.942017,299.737762 817.027893,304.931152 811.047974,306.073700 
	C807.558472,306.740387 804.207092,308.130157 800.561096,309.267120 
	C804.120789,314.951202 809.113647,314.258240 813.716980,313.935822 
	C824.211731,313.200745 831.015381,319.815247 836.875488,326.580963 
	C843.831421,334.612030 850.468506,338.671967 857.781982,334.815277 
	C865.423706,330.785461 873.360046,327.773071 881.353210,324.691620 
	C883.319153,323.933716 885.106079,321.247711 885.726318,319.089233 
	C886.029785,318.033051 883.729492,315.757080 882.155212,314.720062 
	C877.174316,311.439056 871.870972,308.643555 866.928833,305.309753 
	C865.257568,304.182343 863.335632,302.092102 863.180725,300.299072 
	C862.696289,294.693085 863.026123,289.018738 862.995239,283.371155 
	C862.865356,259.609314 862.673096,235.847672 862.629578,212.085709 
	C862.623230,208.647964 863.573303,205.440140 867.934326,204.994308 
	C876.940002,204.073654 885.855225,202.716385 893.363098,197.121857 
	C894.627686,196.179489 896.094421,193.802856 895.701599,192.744537 
	C895.123474,191.187195 893.114685,189.555649 891.430542,189.156067 
	C888.907104,188.557327 886.136536,189.000137 882.491272,189.000000 
M610.969482,101.795692 
	C608.805481,98.330368 606.219055,97.934799 602.774231,100.814964 
	C599.370728,103.660591 596.147827,106.721611 592.826172,109.666122 
	C587.147461,114.699997 581.405579,119.663879 575.791260,124.768280 
	C573.720764,126.650726 571.227661,128.529770 570.140076,130.954376 
	C564.566956,143.378738 562.481323,156.738892 562.155701,170.144394 
	C561.593750,193.279816 562.130127,216.439697 561.963928,239.587585 
	C561.793457,263.340210 561.274170,287.090302 561.103516,310.842926 
	C561.088684,312.917999 562.531311,315.003540 563.296936,317.084198 
	C565.274170,316.147217 567.857422,315.716156 569.130432,314.191254 
	C577.470764,304.200592 585.094910,293.583313 593.794800,283.929382 
	C603.174500,273.521057 605.282349,261.071228 605.932617,248.018509 
	C606.304626,240.551285 605.895325,233.048569 606.021790,225.564941 
	C606.282410,210.145096 606.808228,194.728470 606.934692,179.308151 
	C606.990112,172.559067 606.062988,165.803726 606.073120,159.051971 
	C606.084106,151.726273 607.157410,144.383331 606.888062,137.080338 
	C606.454956,125.334236 608.491333,113.985313 610.969482,101.795692 
M1171.813477,181.280014 
	C1168.072144,178.735031 1164.681152,180.372787 1161.414551,182.288254 
	C1159.702881,183.291992 1158.207031,184.660751 1156.596436,185.841003 
	C1150.475464,190.326706 1144.167969,194.582001 1138.285400,199.360611 
	C1134.422485,202.498520 1134.977905,204.589569 1139.462769,207.091919 
	C1140.453125,207.644455 1141.353882,208.461319 1142.409302,208.777130 
	C1153.974609,212.237488 1156.680786,220.575943 1156.140137,231.637436 
	C1155.531372,244.093338 1156.046021,256.602142 1155.981934,269.087463 
	C1155.945679,276.140564 1155.740723,283.193024 1155.588501,290.245270 
	C1155.437744,297.230316 1153.685669,303.142792 1146.833008,306.871552 
	C1143.169678,308.864899 1142.306030,312.652618 1145.590332,316.005402 
	C1147.234741,317.684021 1149.526367,319.711456 1151.601318,319.800049 
	C1157.666382,320.058929 1161.639282,322.551971 1165.230591,327.498810 
	C1172.721191,337.816803 1177.684570,338.376160 1188.747559,333.481812 
	C1195.879761,330.326447 1202.394775,325.699585 1208.981079,321.416351 
	C1212.791992,318.938049 1216.195312,315.833069 1219.717285,313.061066 
	C1216.857666,308.011963 1213.454590,308.616394 1210.058594,309.494232 
	C1202.248047,311.513214 1196.515625,308.493286 1194.394531,300.791656 
	C1193.541992,297.696014 1193.107056,294.398621 1193.053101,291.183502 
	C1192.624512,265.628662 1192.342896,240.071411 1191.970703,214.515579 
	C1191.952393,213.259155 1191.618042,211.975677 1191.246948,210.761017 
	C1187.743774,199.293274 1180.786011,190.078262 1171.813477,181.280014 
M490.789703,299.262207 
	C486.892944,298.841522 482.996735,298.074158 479.099365,298.068420 
	C469.345825,298.053986 460.683716,301.001129 453.475586,307.950897 
	C446.715698,314.468506 443.041779,321.736755 442.708282,331.590912 
	C442.332428,342.697815 446.872192,351.349091 452.530121,359.939789 
	C454.489655,362.915131 460.066406,362.951721 463.493896,360.129181 
	C466.952911,357.280640 463.514984,355.388428 462.598969,352.968781 
	C461.683502,350.550598 460.682007,347.282043 461.625854,345.290161 
	C462.577545,343.281708 465.865021,341.213867 468.144409,341.196625 
	C479.878326,341.107819 491.618225,341.637604 503.353210,342.035828 
	C505.451141,342.106995 507.535004,342.811584 509.626312,342.816437 
	C516.736938,342.832916 523.945374,343.364899 530.933716,342.389923 
	C539.231079,341.232330 544.142029,334.355804 549.652039,328.802002 
	C551.747864,326.689514 553.648315,324.383240 556.227844,321.507538 
	C549.834778,320.695374 544.531555,320.974487 539.968994,319.270538 
	C523.637512,313.171509 507.556946,306.400482 490.789703,299.262207 
M1183.513428,155.986649 
	C1186.122070,153.046158 1188.693726,150.071655 1191.347534,147.172562 
	C1196.199463,141.872223 1196.918335,137.389359 1192.956787,131.385498 
	C1189.914307,126.774231 1186.444824,122.377846 1182.704712,118.309372 
	C1177.232056,112.356285 1174.424072,112.341835 1168.219849,117.282372 
	C1165.399780,119.528114 1162.696045,121.942368 1159.735352,123.984123 
	C1154.487061,127.603386 1149.083008,130.996628 1142.563843,135.255508 
	C1145.983887,137.907104 1148.646729,139.990051 1151.329346,142.047333 
	C1155.298828,145.091583 1160.215942,146.748810 1161.313721,153.061188 
	C1161.985840,156.925980 1164.393677,161.642044 1170.007935,161.407852 
	C1174.813843,161.207428 1179.595459,160.612473 1183.513428,155.986649 
M100.038132,116.637337 
	C96.969444,119.601685 95.318886,123.173538 95.837509,126.438446 
	C96.398468,125.698555 96.643326,125.155396 97.062332,124.855934 
	C103.477501,120.270996 110.691170,116.488022 116.164261,110.974937 
	C124.167351,102.913383 132.712189,96.376404 143.602539,92.883682 
	C146.127579,92.073868 148.210495,89.885483 150.496841,88.331451 
	C150.298904,87.678268 150.100952,87.025093 149.903000,86.371918 
	C147.637695,86.371918 145.250854,85.917435 143.136749,86.482803 
	C140.261215,87.251808 137.539200,88.690094 134.847412,90.033791 
	C125.220116,94.839539 119.160194,104.653610 108.593712,108.408569 
	C105.403442,109.542274 103.190979,113.427559 100.038132,116.637337 
M194.607864,75.849930 
	C188.032471,77.577965 181.435196,79.229935 174.903687,81.110390 
	C173.840027,81.416618 174.664322,83.681488 176.265060,84.061226 
	C185.880280,86.342216 194.756104,86.006943 201.182388,76.232910 
	C199.066391,75.905876 197.111664,75.603760 194.607864,75.849930 
M1129.961426,157.385910 
	C1126.694336,162.667084 1127.135498,168.254974 1128.499756,174.620621 
	C1130.236694,173.809814 1131.787109,173.374069 1132.989136,172.473236 
	C1137.397827,169.169205 1137.196411,164.303986 1136.978394,159.540192 
	C1136.752197,154.599991 1134.489136,153.665924 1129.961426,157.385910 
M1909.037842,255.668396 
	C1912.023804,257.444672 1914.852661,259.652588 1918.060303,260.819214 
	C1919.720825,261.423157 1922.669067,260.343781 1921.880127,257.467285 
	C1921.247803,255.160950 1919.283081,251.226791 1918.372437,251.353073 
	C1915.289429,251.780563 1912.412109,253.692078 1909.037842,255.668396 
M1433.981689,164.523727 
	C1435.160156,163.681900 1436.688110,163.057343 1437.394165,161.921844 
	C1437.864380,161.165527 1437.527710,159.361313 1436.876831,158.615662 
	C1436.287720,157.940674 1434.386230,157.489090 1433.746704,157.930054 
	C1429.640747,160.761459 1425.722900,163.865768 1421.743286,166.880386 
	C1422.178345,167.622314 1422.613403,168.364227 1423.048462,169.106140 
	C1426.481323,167.727570 1429.914062,166.348999 1433.981689,164.523727 
M310.435944,102.996628 
	C311.235992,100.521553 312.036011,98.046478 312.836060,95.571411 
	C311.084534,95.050362 309.215729,93.916977 307.622437,94.222115 
	C306.548126,94.427856 305.126648,96.682640 305.160034,97.987534 
	C305.224915,100.520226 305.941406,103.270828 310.435944,102.996628 
M281.032440,231.773773 
	C281.355621,233.334518 281.306183,235.131256 282.104156,236.391327 
	C282.944824,237.718842 284.595062,238.533707 285.891602,239.572540 
	C286.899384,237.621948 289.193176,235.124863 288.645203,233.835358 
	C287.530090,231.211182 285.297729,228.064148 281.032440,231.773773 
M1503.216064,252.253235 
	C1501.849243,253.178009 1500.482300,254.102798 1499.115356,255.027573 
	C1499.277222,255.724197 1499.439087,256.420837 1499.600952,257.117462 
	C1501.705688,257.747253 1503.898682,259.031128 1505.882202,258.763489 
	C1507.087524,258.600891 1507.969482,256.042175 1508.996704,254.559860 
	C1507.319824,253.712387 1505.642822,252.864929 1503.216064,252.253235 
M280.039948,165.346786 
	C281.715790,165.711227 283.867889,166.874832 284.944214,166.233353 
	C286.225525,165.469650 286.583466,163.156647 287.341492,161.514908 
	C286.717194,161.014984 286.092865,160.515045 285.468567,160.015121 
	C283.647461,161.520798 281.826355,163.026474 280.039948,165.346786 
z"/>
<path fill="#FFFFFF" opacity="1.000000" stroke="none" 
	d="
M246.844360,229.022369 
	C237.978500,233.206421 229.183685,234.125061 219.944916,232.098389 
	C216.414780,231.323990 213.100571,232.744873 212.293793,236.478241 
	C209.775833,248.129913 208.358994,259.729462 209.636200,271.894318 
	C210.728424,282.297089 211.676071,293.236603 207.337280,303.761444 
	C213.921692,309.488678 221.557800,307.048218 228.033508,304.110504 
	C236.877075,300.098663 245.656570,295.181915 253.066696,288.983276 
	C260.876434,282.450348 266.962982,273.877777 274.003174,266.384949 
	C275.198608,265.112701 277.875671,263.762054 279.025085,264.288513 
	C280.469818,264.950165 282.173370,267.793732 281.815979,269.200562 
	C279.371704,278.822510 276.999390,288.536530 273.476257,297.791656 
	C269.187347,309.058563 259.929535,316.734528 250.572418,323.506622 
	C242.323822,329.476410 233.105011,334.416748 223.719284,338.413666 
	C214.944473,342.150543 205.592499,343.918640 195.575500,343.271942 
	C184.127411,342.532806 172.951248,341.207092 161.942947,338.047974 
	C150.105743,334.650909 138.798050,329.661835 129.617386,321.708313 
	C119.195908,312.679779 109.403862,302.644653 100.816818,291.868835 
	C94.160858,283.516327 92.346962,272.389496 88.816254,262.270264 
	C82.624718,244.524963 84.581100,226.326324 85.478035,208.455170 
	C86.024712,197.562820 90.690208,186.694046 94.549644,176.198578 
	C99.123001,163.761658 106.697586,152.918381 116.625320,144.120514 
	C121.886848,139.457764 128.258896,136.061325 134.043640,131.971619 
	C138.571167,128.770752 142.841232,125.193222 147.462555,122.141731 
	C150.777634,119.952751 154.381775,118.095146 158.076172,116.650185 
	C159.221695,116.202133 162.221558,117.371559 162.380066,118.187531 
	C162.689850,119.782143 162.023392,121.968864 160.998016,123.339684 
	C158.588684,126.560768 155.682846,129.406097 153.086426,132.494690 
	C152.431686,133.273544 152.185211,134.395615 151.626328,135.637192 
	C158.514526,136.661469 163.288681,135.315063 168.056137,129.986252 
	C172.615219,124.890419 179.497360,121.879303 185.336334,117.919273 
	C187.876877,116.196259 190.293030,114.282356 192.885330,112.644554 
	C201.175751,107.406761 209.462509,101.821243 219.789078,102.080872 
	C228.820129,102.307938 236.789978,106.481812 244.712646,110.300766 
	C253.090897,114.339310 261.184021,118.969315 269.562073,123.008362 
	C271.624207,124.002502 274.336670,123.571457 276.696075,124.057922 
	C277.844727,124.294762 279.436981,124.900597 279.795807,125.767014 
	C280.185150,126.707214 279.786560,128.595993 279.022003,129.295151 
	C271.730438,135.962845 264.701569,143.027252 256.776093,148.862457 
	C248.389420,155.037216 239.486404,153.664612 230.644882,148.382095 
	C226.371429,145.828857 221.273270,144.385468 216.356705,143.353104 
	C214.981995,143.064468 211.723206,145.811844 211.413864,147.539810 
	C210.603073,152.068848 210.949188,156.803970 210.821808,161.456619 
	C210.660202,167.359756 210.345215,173.263092 210.366440,179.165375 
	C210.380997,183.218887 210.356888,187.400650 211.363037,191.261063 
	C211.780060,192.861130 214.726288,194.581451 216.717773,194.862595 
	C227.935608,196.446198 239.101471,195.700516 250.352615,194.207611 
	C257.884613,193.208191 265.661591,193.833740 273.317169,194.087616 
	C276.755707,194.201645 278.640961,200.083252 276.104553,204.174011 
	C274.055573,207.478607 271.365845,211.019592 268.066284,212.777756 
	C261.969971,216.026184 256.370178,219.472290 252.223068,225.145401 
	C251.034576,226.771225 248.919937,227.720016 246.844360,229.022369 
M201.355453,295.879944 
	C201.569855,283.169495 201.634918,270.454285 202.036087,257.749756 
	C202.548965,241.507095 203.647797,225.277817 203.896896,209.033630 
	C204.084595,196.793457 203.200729,184.540649 203.036957,172.290222 
	C202.869934,159.796906 202.996918,147.299637 203.001495,134.804092 
	C203.003052,130.576385 200.580002,128.124832 196.826477,127.076553 
	C193.613892,126.179344 190.522095,127.427979 189.370255,130.422546 
	C187.772385,134.576736 186.255127,139.057129 186.137787,143.436310 
	C185.512009,166.791656 185.304855,190.158661 185.015717,213.522400 
	C184.916763,221.518311 185.059601,229.517075 184.982544,237.513474 
	C184.911087,244.925964 183.086517,247.514328 176.389404,250.217621 
	C170.003952,252.795105 163.111389,254.574982 157.385101,258.196930 
	C151.732513,261.772278 143.249908,259.211334 139.645599,266.751465 
	C139.465103,267.129089 138.079926,266.947601 137.253906,266.997192 
	C131.315735,267.353668 131.159256,267.577515 133.712448,273.213593 
	C134.435913,274.810608 135.274017,276.407349 136.337402,277.790588 
	C145.147415,289.250671 155.982132,298.452179 169.485168,303.550507 
	C177.298111,306.500519 185.863541,308.471283 194.432465,306.923431 
	C202.953156,305.384308 202.898621,305.082397 201.355453,295.879944 
M145.052231,152.473114 
	C144.953384,151.675766 144.854523,150.878433 144.703735,149.662262 
	C135.888092,153.287781 130.392563,160.000626 127.240059,168.033295 
	C124.512604,174.982910 122.545334,182.626099 122.229889,190.047211 
	C121.508087,207.028061 121.692940,224.069580 122.188789,241.066650 
	C122.338661,246.204071 124.222481,251.492218 126.304482,256.279724 
	C127.226067,258.398895 130.486542,260.416595 132.918106,260.742310 
	C136.309570,261.196625 139.919266,260.021942 143.274673,259.566223 
	C144.480240,256.224518 146.652908,252.780273 146.838669,249.232010 
	C147.566284,235.333847 147.859634,221.403824 147.929688,207.483688 
	C147.973724,198.733292 147.372864,189.977707 146.989258,181.227631 
	C146.578186,171.850555 146.082596,162.477173 145.052231,152.473114 
z"/>
<path fill="#FFFFFF" opacity="1.000000" stroke="none" 
	d="
M1574.997559,221.152222 
	C1574.663574,223.491211 1574.054565,225.391556 1574.044067,227.295227 
	C1573.963501,241.790543 1573.616089,256.299866 1574.119629,270.778137 
	C1574.533936,282.692261 1575.966309,294.572937 1577.053467,306.458740 
	C1577.164795,307.675659 1577.749756,309.041718 1578.544312,309.971649 
	C1582.824707,314.981171 1581.635254,320.192780 1578.495117,324.825714 
	C1575.755981,328.867218 1572.201538,332.446838 1568.596069,335.786865 
	C1564.374146,339.698273 1558.630005,340.347534 1553.810425,337.185608 
	C1547.330811,332.934570 1540.940552,328.434662 1535.082886,323.379852 
	C1529.119629,318.233856 1528.421265,313.564117 1532.034546,306.466339 
	C1535.177979,300.291687 1535.891724,293.748566 1535.944702,287.108612 
	C1536.100098,267.615509 1535.586548,248.108490 1536.148193,228.630356 
	C1536.510742,216.058151 1528.701294,213.580475 1520.632935,211.943954 
	C1518.350464,211.481033 1515.272217,210.962173 1514.201172,209.366562 
	C1512.207275,206.396683 1514.353149,203.565201 1516.891113,201.660843 
	C1522.844482,197.194031 1528.766968,192.650040 1535.020874,188.633789 
	C1538.707397,186.266190 1542.838257,184.117157 1547.061523,183.164459 
	C1554.223145,181.548859 1558.796509,185.544479 1562.334717,191.603088 
	C1565.069702,196.286346 1568.411377,200.668137 1573.744385,203.026398 
	C1576.986938,204.460251 1579.396362,204.285522 1582.041504,201.607666 
	C1587.637817,195.942200 1593.009399,189.780899 1599.523071,185.375275 
	C1605.619019,181.252243 1619.487061,181.152878 1625.215576,190.131287 
	C1628.472168,195.235641 1633.473389,199.317612 1638.052124,203.458313 
	C1641.571167,206.640961 1645.917847,206.612442 1650.435791,205.281540 
	C1653.201782,204.466782 1656.196289,204.088272 1659.072632,204.157669 
	C1660.206299,204.185028 1661.656738,205.789429 1662.254150,207.019852 
	C1662.544922,207.618637 1661.453003,209.440292 1660.555176,209.954910 
	C1658.378784,211.202515 1656.015747,212.590179 1653.607178,212.865463 
	C1649.214355,213.367554 1648.109497,216.393097 1648.106934,219.660782 
	C1648.101074,227.077316 1648.880127,234.492981 1648.926025,241.911545 
	C1648.959595,247.326660 1648.105347,252.743378 1648.045654,258.163757 
	C1647.904053,270.991791 1647.982178,283.822479 1648.005615,296.652039 
	C1648.023682,306.457611 1652.262329,309.374695 1662.048340,308.223999 
	C1668.322388,307.486237 1674.921631,308.086243 1681.199585,309.135742 
	C1691.195801,310.806793 1700.073730,304.133972 1699.968018,293.948975 
	C1699.738403,271.795563 1699.371582,249.643234 1698.963013,227.492264 
	C1698.894043,223.755051 1698.082764,220.027557 1698.072388,216.294312 
	C1698.061157,212.290878 1695.157349,210.944794 1692.642090,208.866898 
	C1690.130737,206.792297 1686.301270,203.864960 1686.488892,201.595459 
	C1686.719116,198.806122 1690.020508,195.407211 1692.859741,193.860397 
	C1701.005249,189.422867 1704.917969,181.228851 1711.028809,175.035080 
	C1718.211060,167.755264 1725.375000,160.423218 1733.020874,153.648636 
	C1737.181274,149.962265 1740.907349,151.964523 1740.931641,157.557938 
	C1740.960205,164.136444 1740.692627,170.735046 1740.150757,177.291641 
	C1739.663086,183.192551 1743.574097,187.524475 1750.447388,187.996460 
	C1755.527710,188.345367 1760.737183,188.107101 1765.641235,189.221603 
	C1768.354736,189.838287 1770.558350,192.699203 1772.991943,194.548462 
	C1771.128296,196.648712 1769.613770,199.935028 1767.329834,200.607315 
	C1762.257812,202.100235 1756.819336,202.532333 1751.495117,202.938354 
	C1744.484497,203.472977 1742.000122,205.868073 1742.000122,212.941055 
	C1741.999878,237.267288 1742.047485,261.593719 1741.954956,285.919586 
	C1741.938843,290.168701 1741.161621,294.410553 1741.037842,298.664551 
	C1740.822144,306.085663 1743.412354,309.446198 1750.437500,310.963806 
	C1754.790894,311.904236 1760.171143,312.694855 1760.484863,317.611755 
	C1760.647095,320.155121 1756.567261,323.661255 1753.642944,325.560181 
	C1748.161499,329.119659 1742.250610,332.098755 1736.290527,334.820587 
	C1728.499390,338.378601 1722.108276,334.415802 1716.421509,329.733765 
	C1712.776855,326.733124 1709.614746,322.994629 1706.809204,319.166870 
	C1703.625000,314.822327 1699.044312,314.257660 1694.445923,312.889069 
	C1684.253906,309.855652 1676.618286,315.929871 1668.775513,320.038025 
	C1659.694214,324.794800 1651.499146,331.219055 1642.764526,336.671539 
	C1638.128784,339.565491 1633.204712,340.082428 1628.287598,336.831635 
	C1625.613037,335.063507 1622.812378,333.449005 1619.939941,332.024506 
	C1609.947144,327.069122 1609.307739,318.737396 1610.337158,309.150635 
	C1611.104614,302.003784 1611.940918,294.841644 1612.189575,287.666992 
	C1612.591553,276.072418 1612.791138,264.457489 1612.590210,252.859589 
	C1612.434937,243.900986 1611.976685,234.891068 1610.689575,226.044113 
	C1610.317627,223.486328 1606.996338,220.735657 1604.362793,219.253876 
	C1598.224121,215.799683 1591.715576,212.988297 1585.286255,210.071945 
	C1582.700439,208.898956 1580.058105,209.425247 1578.649048,211.965378 
	C1577.125732,214.711731 1576.191162,217.784637 1574.997559,221.152222 
z"/>
<path fill="#FFFFFF" opacity="1.000000" stroke="none" 
	d="
M1290.274414,188.230392 
	C1300.759521,182.074295 1311.644043,179.170319 1322.773071,184.188995 
	C1328.412109,186.731995 1333.241699,191.320557 1337.999878,195.484161 
	C1341.560913,198.600342 1344.337524,202.597092 1347.630981,206.041534 
	C1349.290894,207.777512 1350.787842,207.961777 1353.157593,206.058701 
	C1355.725220,203.996811 1359.287354,202.754944 1362.596924,202.154160 
	C1365.827881,201.567688 1367.372559,203.897171 1365.944946,206.931641 
	C1364.461792,210.084198 1362.815308,213.383438 1360.436401,215.839905 
	C1356.628662,219.771530 1356.059204,224.551834 1356.088867,229.341156 
	C1356.193726,246.242584 1357.218628,263.156067 1356.779785,280.035980 
	C1356.541138,289.213287 1357.008789,297.833588 1359.761719,306.714172 
	C1362.500610,315.549286 1363.951904,324.924530 1364.756592,334.168427 
	C1365.288574,340.278198 1361.773193,345.536072 1356.384277,348.912476 
	C1347.697388,354.355316 1338.910034,359.638031 1330.161011,364.981659 
	C1329.751343,365.231903 1329.161377,365.306610 1328.891846,365.649078 
	C1321.645264,374.857452 1310.509888,378.589478 1301.419556,385.194427 
	C1297.655396,387.929443 1294.124756,391.107239 1290.051880,393.257721 
	C1286.769409,394.990814 1284.040405,393.446472 1280.741333,390.908783 
	C1272.994263,384.949615 1265.286621,378.873322 1253.791016,380.181519 
	C1247.058228,380.947754 1240.242676,380.775848 1233.604126,382.792786 
	C1231.302734,383.492004 1229.064575,379.510986 1229.755127,376.609467 
	C1231.540039,369.110138 1238.028076,365.889740 1243.614258,362.378021 
	C1248.192139,359.500244 1254.136353,358.887054 1259.007812,356.367249 
	C1270.924194,350.203400 1283.397095,351.460510 1295.792847,353.247162 
	C1298.926025,353.698761 1301.663940,357.013550 1304.535645,359.079224 
	C1305.336792,359.655548 1306.085938,360.385162 1306.656494,361.188293 
	C1313.487793,370.803650 1324.553711,368.590179 1326.036133,356.074005 
	C1326.846680,349.229462 1324.184326,341.761993 1322.084839,334.881592 
	C1321.158936,331.847168 1317.061401,329.891022 1315.643799,326.864502 
	C1314.268799,323.929382 1314.496948,320.247711 1313.994995,316.897827 
	C1313.692871,314.880829 1313.341187,312.871277 1312.865356,309.963013 
	C1309.551880,315.885803 1307.155640,320.703308 1304.268555,325.206116 
	C1299.766357,332.228210 1288.534546,335.085907 1281.036255,331.587616 
	C1276.712524,329.570374 1272.171997,328.008820 1267.891602,325.910736 
	C1265.314209,324.647491 1262.640503,323.127930 1260.719116,321.063538 
	C1254.649292,314.541748 1246.852661,309.554932 1242.786011,301.238770 
	C1242.091187,299.817657 1241.156738,298.325714 1241.072388,296.824951 
	C1240.591064,288.254364 1239.814453,279.651215 1240.142944,271.097717 
	C1240.485718,262.172943 1242.315308,253.310745 1242.797974,244.383514 
	C1243.028931,240.110138 1241.376831,235.769363 1241.064697,231.424118 
	C1240.607300,225.058517 1243.220215,219.983917 1248.341797,216.087524 
	C1254.674072,211.270081 1260.601807,205.865555 1267.222534,201.500748 
	C1272.481201,198.033997 1278.578979,195.861969 1284.180176,192.882141 
	C1286.298828,191.755066 1288.069824,189.974899 1290.274414,188.230392 
M1278.000000,251.510193 
	C1278.000000,261.659241 1277.881470,271.810669 1278.085205,281.955627 
	C1278.134766,284.419220 1278.433716,287.873535 1280.009521,289.137451 
	C1286.634888,294.451965 1293.580688,299.449280 1300.835815,303.861450 
	C1304.409302,306.034790 1308.911499,306.681000 1313.522339,308.191467 
	C1314.300415,302.954834 1315.868164,297.235809 1315.869751,291.516388 
	C1315.874878,271.798309 1315.307617,252.080475 1315.018677,232.361649 
	C1314.949707,227.659546 1313.257202,224.373657 1308.750000,222.200424 
	C1300.834717,218.383759 1292.308350,215.643539 1285.678711,209.385757 
	C1284.173218,207.964783 1281.721558,207.546204 1278.998413,206.357590 
	C1278.254517,210.436188 1277.080933,213.878983 1277.100586,217.314987 
	C1277.163574,228.383041 1277.666626,239.448593 1278.000000,251.510193 
z"/>
<path fill="#FFFFFF" opacity="1.000000" stroke="none" 
	d="
M684.235840,189.728714 
	C687.772766,194.604111 690.815613,199.395462 694.390198,203.750336 
	C697.085693,207.034088 701.368042,206.514862 703.981628,203.396515 
	C708.006042,198.594879 711.720276,193.390762 716.392639,189.302002 
	C729.385437,177.932114 737.463806,177.557632 746.610168,191.497406 
	C751.318604,198.673431 757.206055,203.031815 765.268616,204.578659 
	C768.001526,205.102982 771.000061,204.243942 773.877075,204.015366 
	C776.534363,203.804230 779.191528,203.590805 781.848755,203.378387 
	C782.126099,203.996658 782.403503,204.614944 782.680908,205.233231 
	C781.194214,207.248062 780.027771,209.645035 778.162476,211.208115 
	C771.855469,216.493286 769.645630,222.908234 769.835266,231.195816 
	C770.326355,252.656021 769.999023,274.134918 770.000427,295.606354 
	C770.001038,305.076233 772.711914,307.187317 782.112061,307.166656 
	C787.660828,307.154480 793.213257,308.792664 800.101257,309.904510 
	C797.570801,312.215912 796.054749,313.741882 794.395813,315.092377 
	C785.657227,322.206543 777.110474,329.588318 768.023926,336.229797 
	C763.496094,339.539246 757.826294,339.987091 752.249451,338.013153 
	C743.647461,334.968506 735.933167,330.782074 731.157715,322.514801 
	C728.502869,317.918640 729.264099,313.485748 730.926331,308.732117 
	C732.393555,304.536316 733.662720,300.072662 733.865356,295.674164 
	C734.302429,286.186920 734.127563,276.663269 733.963074,267.158691 
	C733.783142,256.763611 733.441467,246.368011 732.945129,235.983414 
	C732.752319,231.949677 732.453674,227.793304 731.310425,223.959015 
	C728.847778,215.699280 714.732910,206.690765 702.537476,213.352325 
	C698.054382,215.801132 696.914062,221.029663 697.008362,226.120132 
	C697.319519,242.936356 697.764954,259.750854 697.940430,276.568329 
	C697.993347,281.637878 696.828003,286.749298 697.170044,291.776947 
	C697.422791,295.490967 698.559753,299.483978 700.435730,302.689636 
	C708.494507,316.460022 706.265442,325.108246 692.105713,334.509491 
	C686.491638,338.236969 680.948486,339.160950 674.878784,335.993805 
	C669.086487,332.971405 662.868042,330.558044 657.596497,326.808899 
	C653.106262,323.615479 652.364502,318.386108 653.535522,312.732513 
	C654.816528,306.548065 655.802124,300.189392 655.891968,293.892029 
	C656.181702,273.591248 655.989807,253.283707 656.015869,232.978806 
	C656.018494,230.956955 656.499756,228.912201 656.320496,226.917480 
	C655.230225,214.782532 654.187378,213.693893 642.499634,210.957581 
	C640.681458,210.531906 638.845337,209.736084 637.310120,208.684326 
	C635.995483,207.783661 633.955627,205.717422 634.237610,205.134201 
	C635.031494,203.492233 636.633057,201.702759 638.314026,201.121063 
	C645.482849,198.640335 652.476562,195.562195 656.894226,189.352234 
	C662.742371,181.131165 670.297791,183.801132 677.592590,185.088547 
	C679.903503,185.496384 681.854553,187.943314 684.235840,189.728714 
z"/>
<path fill="#FFFFFF" opacity="1.000000" stroke="none" 
	d="
M1109.248535,308.988495 
	C1112.684204,309.992645 1115.775757,310.837738 1118.712280,312.056519 
	C1119.680054,312.458221 1120.904541,313.878326 1120.835693,314.738617 
	C1120.744141,315.882080 1119.731323,317.262970 1118.716187,317.970490 
	C1112.392334,322.378021 1105.821045,326.439240 1099.597168,330.979187 
	C1093.319092,335.558838 1084.896240,336.412018 1078.521851,331.864044 
	C1072.803955,327.784576 1067.764282,322.754181 1062.044312,318.678040 
	C1058.040161,315.824615 1053.313721,314.004883 1049.083862,311.436859 
	C1047.765991,310.636749 1046.370361,308.964966 1046.229980,307.569550 
	C1046.133179,306.606934 1047.976074,304.754791 1049.222290,304.466156 
	C1056.390381,302.805786 1057.862793,297.529205 1057.976807,291.353485 
	C1058.084473,285.524963 1057.743896,279.678741 1058.065918,273.866089 
	C1058.454346,266.853699 1059.855713,259.870850 1059.887207,252.871033 
	C1059.946167,239.793411 1059.253174,226.714203 1059.019897,213.633026 
	C1058.717651,196.688400 1057.957031,179.719299 1058.572876,162.803650 
	C1058.921997,153.211807 1056.116699,145.862946 1049.792480,139.037857 
	C1047.725464,136.807083 1047.241821,133.108963 1046.516602,131.291153 
	C1053.405151,126.921104 1059.694458,123.960686 1064.685181,119.535660 
	C1073.226685,111.962158 1082.401733,105.602661 1092.703125,100.796440 
	C1097.007568,98.788101 1099.963989,100.445320 1099.975464,105.037422 
	C1100.030273,126.989998 1100.000000,148.942795 1100.000000,170.895508 
	C1100.000000,212.597672 1099.969116,254.299866 1100.033569,296.001923 
	C1100.043091,302.164886 1103.024292,306.608551 1109.248535,308.988495 
z"/>
<path fill="#FFFFFF" opacity="1.000000" stroke="none" 
	d="
M464.000824,221.349091 
	C465.076477,214.818741 466.526550,208.880432 470.997223,204.274368 
	C473.108276,202.099426 475.143188,199.559311 477.744385,198.209198 
	C484.067963,194.927048 490.689026,192.213303 497.216675,189.330460 
	C502.017487,187.210266 503.033997,182.741852 503.950409,178.349518 
	C505.171021,172.499069 505.519073,166.412430 507.258820,160.739075 
	C509.154724,154.556686 512.671082,149.299072 519.084229,146.333801 
	C526.607849,142.855133 533.912598,138.884491 541.179260,134.885498 
	C542.532471,134.140808 543.256958,132.253738 544.770996,130.224655 
	C517.033264,127.934555 490.220795,124.586678 463.579987,132.391785 
	C463.139191,132.010269 462.698425,131.628738 462.257629,131.247208 
	C464.122162,127.388199 465.396362,123.062218 467.991699,119.781319 
	C471.737457,115.046120 476.413971,111.040947 480.743347,106.775040 
	C488.008270,99.616699 496.992493,95.374107 506.808197,93.862282 
	C514.338379,92.702454 522.368103,92.325409 529.819702,93.631432 
	C544.959839,96.285034 559.725952,101.186966 575.344971,100.689369 
	C576.974792,100.637444 578.576538,99.707649 580.521545,99.078323 
	C581.418396,101.049568 582.702576,102.299149 579.226013,104.255905 
	C575.672363,106.256050 573.348206,110.337524 570.213379,113.210548 
	C566.095398,116.984642 561.536255,120.283173 557.479736,124.117287 
	C550.474915,130.738083 547.245117,139.389954 544.983337,148.526703 
	C539.487549,170.727386 542.923279,193.310028 542.030273,215.705429 
	C541.528931,228.278534 541.929810,240.915802 540.839783,253.429718 
	C539.634521,267.266266 530.934021,276.202209 518.807068,281.942444 
	C512.604797,284.878235 506.210754,287.417938 499.847107,289.997894 
	C498.157684,290.682739 496.260162,290.854309 492.678314,291.663818 
	C494.644592,285.764679 496.469818,281.369659 497.555450,276.798950 
	C499.595886,268.208435 501.892792,259.586212 502.785431,250.844666 
	C503.509888,243.750229 502.619812,236.433151 501.898010,229.270020 
	C501.449432,224.818405 498.177216,223.102798 493.732941,223.974899 
	C490.839783,224.542633 487.916992,224.957611 485.015594,225.485596 
	C478.064606,226.750488 475.774139,233.893173 470.381378,237.139435 
	C469.324249,237.775787 468.401733,238.635696 467.313110,239.472458 
	C462.232697,233.944412 464.545258,227.620056 464.000824,221.349091 
z"/>
<path fill="#FFFFFF" opacity="1.000000" stroke="none" 
	d="
M359.726044,305.234680 
	C365.827911,308.331055 371.643738,311.151245 378.630859,314.539429 
	C373.774750,317.898499 370.138031,320.210968 366.731628,322.823700 
	C362.821320,325.822968 359.078461,329.045441 355.328430,332.247681 
	C348.985718,337.663910 341.722687,335.981720 336.026703,330.783203 
	C331.543976,326.691956 326.067871,323.625946 320.825043,320.447632 
	C314.966309,316.895874 308.872894,313.731323 301.900696,309.852539 
	C304.675842,308.642303 306.745728,308.053772 308.463348,306.927826 
	C312.547943,304.250397 314.181854,299.863098 314.881073,295.403290 
	C315.692596,290.227295 315.945557,284.920074 315.955505,279.668915 
	C316.035095,237.513397 316.000732,195.357681 315.999420,153.202011 
	C315.999146,145.104431 314.805695,143.535156 307.173584,140.952911 
	C304.762573,140.137161 303.165375,138.620270 304.997589,135.888748 
	C306.802124,133.198593 308.220764,129.960876 310.655945,128.034378 
	C319.423615,121.098236 328.429047,114.442741 337.592072,108.035011 
	C341.910858,105.014877 346.658234,102.499771 351.475952,100.348099 
	C353.770966,99.323105 356.921906,99.079552 357.093018,103.404701 
	C357.267273,107.807617 357.891968,112.200089 357.914795,116.599236 
	C357.932526,120.015602 357.045685,123.434898 357.042114,126.853386 
	C356.983032,183.671829 356.968384,240.490417 357.103424,297.308594 
	C357.109467,299.860413 358.626678,302.408630 359.726044,305.234680 
z"/>
<path fill="#FFFFFF" opacity="1.000000" stroke="none" 
	d="
M1864.923096,244.922211 
	C1866.831055,237.148300 1861.792847,231.829208 1858.426270,225.796539 
	C1855.264404,220.130676 1852.365601,214.236679 1850.157104,208.150558 
	C1848.832886,204.500992 1847.143066,202.013260 1843.318970,202.087753 
	C1839.002319,202.171829 1836.484375,204.882446 1836.037598,209.142883 
	C1835.542725,213.859146 1835.301880,218.603409 1835.008179,223.339050 
	C1834.641846,229.250015 1833.873901,235.184158 1834.123169,241.072540 
	C1834.408203,247.804535 1832.987061,255.418686 1840.879395,259.642731 
	C1841.649170,260.054688 1841.879395,262.702820 1841.395386,263.933685 
	C1840.713745,265.666931 1839.368042,267.343658 1837.889771,268.522186 
	C1832.537964,272.788971 1834.078003,285.579987 1841.542358,289.078339 
	C1845.669189,291.012421 1849.321777,294.070282 1852.956299,296.917419 
	C1859.053589,301.693939 1864.988403,306.324554 1873.461548,306.089508 
	C1881.588013,305.864044 1886.874268,301.376984 1892.119507,295.953949 
	C1895.183472,292.786011 1899.142456,290.389954 1902.978516,288.119141 
	C1904.144897,287.428650 1906.244141,288.313843 1908.014404,288.486969 
	C1906.264893,296.507202 1900.937378,299.833130 1895.120483,303.148590 
	C1891.596802,305.157074 1889.047485,308.810913 1885.855591,311.480835 
	C1880.748535,315.752625 1875.479248,319.831116 1870.263794,323.972656 
	C1865.943115,327.403748 1861.375000,330.562347 1857.328247,334.288788 
	C1852.725830,338.526764 1845.462769,339.074432 1840.930542,336.958069 
	C1833.314819,333.401855 1827.543457,327.520691 1821.835938,321.512817 
	C1816.763550,316.173370 1811.322998,311.090210 1803.320923,310.813629 
	C1801.441406,310.748657 1799.534546,311.591736 1797.634033,311.987091 
	C1795.909546,312.345886 1794.173340,312.928986 1792.448120,312.909332 
	C1791.243042,312.895569 1789.373413,312.321625 1789.011353,311.478180 
	C1788.514282,310.319672 1788.827881,308.524170 1789.379395,307.256134 
	C1791.466797,302.456604 1794.622681,297.956818 1795.802368,292.971832 
	C1797.104492,287.469849 1796.847900,281.561523 1796.958862,275.824188 
	C1797.119385,267.523865 1797.129639,259.215485 1796.961792,250.915466 
	C1796.809082,243.371613 1796.709595,235.793060 1795.889160,228.306213 
	C1795.137329,221.444595 1801.510254,215.504150 1806.563354,212.968552 
	C1808.408569,212.042648 1810.322876,211.029739 1811.795654,209.626205 
	C1817.473267,204.215988 1823.594604,199.782059 1831.412964,197.818832 
	C1839.284790,195.842209 1845.893311,191.221115 1852.700562,186.959442 
	C1857.908447,183.698990 1862.812012,179.348938 1869.771118,179.939728 
	C1873.144043,180.226089 1875.421143,181.344955 1877.179688,184.453430 
	C1882.863770,194.501205 1888.799927,204.408203 1894.746094,214.305161 
	C1899.152954,221.639786 1899.856079,228.446609 1895.561401,231.749695 
	C1891.004028,235.254623 1886.041626,238.425537 1880.837036,240.838181 
	C1876.253418,242.962921 1871.091675,243.840179 1865.724487,245.304077 
	C1865.150146,245.200592 1865.036621,245.061401 1864.923096,244.922211 
z"/>
<path fill="#FFFFFF" opacity="1.000000" stroke="none" 
	d="
M924.324097,213.260071 
	C932.022827,208.920380 939.340698,204.664780 946.843201,200.764252 
	C949.478027,199.394455 952.690552,199.171509 955.418213,197.936554 
	C959.736145,195.981567 963.994446,193.825195 968.051208,191.378174 
	C975.745422,186.736984 983.743896,182.828934 992.597168,181.137161 
	C996.707520,180.351685 1005.043701,187.219391 1004.815186,191.619873 
	C1004.537781,196.961761 1007.591919,200.489182 1010.000366,204.391769 
	C1013.294739,209.729874 1017.086121,214.758377 1020.518616,220.014877 
	C1024.263794,225.750092 1023.126160,230.678619 1016.984375,233.436295 
	C1008.551819,237.222580 999.885315,240.486023 991.338806,244.021362 
	C986.810242,245.894699 986.617004,242.953262 987.078674,239.981491 
	C988.329651,231.929749 986.006470,225.588669 979.792542,220.053650 
	C975.008789,215.792587 971.363586,210.277420 966.862854,205.660309 
	C965.453918,204.214874 962.924438,203.336533 960.876892,203.277817 
	C959.961182,203.251587 958.391357,205.779892 958.101501,207.332443 
	C955.247986,222.616577 955.351868,237.867004 957.778259,253.288498 
	C958.955261,260.768768 958.187805,268.591705 957.944702,276.248230 
	C957.706665,283.747101 961.167297,288.552948 967.484680,292.188812 
	C974.312195,296.118195 980.720886,300.768066 987.453064,304.872894 
	C991.718628,307.473755 996.441223,307.212830 1000.522278,304.697754 
	C1005.737976,301.483551 1010.304993,297.191986 1015.594482,294.129730 
	C1020.186890,291.471069 1024.886841,288.188629 1030.933594,289.184174 
	C1030.645386,297.873627 1024.107544,300.979584 1017.940552,303.885773 
	C1008.965698,308.115295 1002.129089,314.886749 994.845215,321.284027 
	C988.291199,327.040192 981.423157,332.617188 974.012024,337.161591 
	C968.287842,340.671478 960.222046,337.606476 955.660828,331.024902 
	C952.000549,325.743469 947.560608,321.606995 941.651245,319.327423 
	C935.275696,316.867981 928.831787,314.320953 922.183594,312.936462 
	C918.451172,312.159180 914.245300,313.655640 910.252686,314.127747 
	C910.020996,313.744995 909.789246,313.362274 909.557495,312.979553 
	C911.377747,311.138458 913.887024,309.603302 914.869812,307.390320 
	C916.712891,303.239777 918.691101,298.722107 918.799805,294.312469 
	C919.072449,283.245087 917.923279,272.145966 918.106445,261.072174 
	C918.324158,247.902664 919.135315,234.730377 920.169373,221.597092 
	C920.388916,218.809021 922.679504,216.184006 924.324097,213.260071 
z"/>
<path fill="#FFFFFF" opacity="1.000000" stroke="none" 
	d="
M1488.872314,288.632935 
	C1490.500366,287.888092 1491.857422,287.127777 1493.251709,287.051575 
	C1495.120850,286.949432 1498.113770,286.758575 1498.655029,287.717407 
	C1499.526978,289.261902 1499.344482,291.931885 1498.633911,293.744965 
	C1495.960693,300.565399 1488.529297,301.219391 1483.413818,304.918274 
	C1480.915283,306.724884 1477.474609,308.108093 1476.215698,310.577820 
	C1472.957886,316.968842 1466.203003,319.011627 1461.570923,323.641632 
	C1457.132202,328.078430 1451.351929,331.137878 1446.469482,335.175385 
	C1441.192383,339.539124 1435.619751,338.528168 1430.663696,335.720642 
	C1423.122681,331.448547 1416.066040,326.302338 1408.934937,321.338623 
	C1407.065186,320.037109 1405.188843,318.291840 1404.170776,316.310760 
	C1401.780151,311.659119 1397.814453,311.771240 1393.658325,312.112701 
	C1391.895142,312.257568 1390.158569,312.935883 1388.405762,312.953094 
	C1383.850098,312.997925 1381.992310,310.664734 1383.301636,306.382202 
	C1384.739868,301.677155 1386.572998,297.093933 1388.082275,292.408722 
	C1388.617554,290.747192 1388.955811,288.942902 1388.961670,287.202362 
	C1389.023438,268.720337 1388.947266,250.237747 1389.045898,231.756027 
	C1389.064941,228.186172 1388.946655,224.327698 1390.223755,221.135193 
	C1391.444946,218.082825 1394.002808,215.197144 1396.680298,213.174438 
	C1401.787842,209.316010 1407.158203,205.641632 1412.868774,202.791382 
	C1418.499146,199.981277 1424.697754,198.317551 1430.622192,196.084824 
	C1432.859741,195.241531 1435.248169,194.534576 1437.183716,193.205826 
	C1441.881592,189.980392 1446.184204,186.165939 1450.951904,183.057785 
	C1461.986084,175.864273 1468.053589,181.681870 1472.972900,190.722458 
	C1477.090210,198.289383 1481.250854,205.847397 1485.765991,213.179276 
	C1491.130615,221.890564 1492.991699,229.556122 1482.564453,235.807419 
	C1479.540894,237.620026 1476.180420,239.009567 1473.503418,241.230652 
	C1468.913574,245.038788 1463.806519,245.308624 1458.460083,244.844604 
	C1457.071777,236.895660 1454.490601,230.023743 1448.848145,224.010254 
	C1444.526733,219.404694 1441.648071,213.386963 1438.437988,207.818466 
	C1436.411499,204.303223 1433.797119,200.997116 1429.780029,202.264297 
	C1425.870728,203.497482 1423.689697,207.284195 1424.000732,211.837936 
	C1424.995850,226.408966 1426.135986,240.972092 1426.928345,255.554123 
	C1427.298096,262.358887 1427.545044,269.256531 1426.848999,276.009155 
	C1426.122192,283.060272 1429.681885,287.445892 1434.676025,290.837677 
	C1443.155640,296.596405 1451.993896,301.830841 1460.738037,307.193024 
	C1462.559204,308.309753 1464.195312,308.536102 1466.630371,307.319031 
	C1472.456665,304.406921 1477.534180,301.135895 1481.118164,295.410065 
	C1482.794434,292.731873 1486.068237,291.053589 1488.872314,288.632935 
z"/>
<path fill="#FFFFFF" opacity="1.000000" stroke="none" 
	d="
M882.981201,189.000000 
	C886.136536,189.000137 888.907104,188.557327 891.430542,189.156067 
	C893.114685,189.555649 895.123474,191.187195 895.701599,192.744537 
	C896.094421,193.802856 894.627686,196.179489 893.363098,197.121857 
	C885.855225,202.716385 876.940002,204.073654 867.934326,204.994308 
	C863.573303,205.440140 862.623230,208.647964 862.629578,212.085709 
	C862.673096,235.847672 862.865356,259.609314 862.995239,283.371155 
	C863.026123,289.018738 862.696289,294.693085 863.180725,300.299072 
	C863.335632,302.092102 865.257568,304.182343 866.928833,305.309753 
	C871.870972,308.643555 877.174316,311.439056 882.155212,314.720062 
	C883.729492,315.757080 886.029785,318.033051 885.726318,319.089233 
	C885.106079,321.247711 883.319153,323.933716 881.353210,324.691620 
	C873.360046,327.773071 865.423706,330.785461 857.781982,334.815277 
	C850.468506,338.671967 843.831421,334.612030 836.875488,326.580963 
	C831.015381,319.815247 824.211731,313.200745 813.716980,313.935822 
	C809.113647,314.258240 804.120789,314.951202 800.561096,309.267120 
	C804.207092,308.130157 807.558472,306.740387 811.047974,306.073700 
	C817.027893,304.931152 821.942017,299.737762 821.980713,293.674408 
	C822.049622,282.862610 822.129700,272.048096 821.964600,261.238403 
	C821.787720,249.655396 822.088623,237.986572 820.722412,226.529114 
	C819.875854,219.429260 816.920837,212.366486 813.820129,205.803024 
	C809.784668,197.261185 810.079224,194.969925 817.170654,189.260696 
	C828.169739,180.405457 838.844055,171.192062 847.703064,160.014206 
	C850.116211,156.969452 854.018677,155.105072 856.745605,153.066818 
	C862.671570,154.995300 864.754944,158.138794 863.118164,163.832779 
	C861.877014,168.150543 861.734863,172.777328 861.005249,177.250565 
	C859.847778,184.346649 864.085266,188.413162 873.496826,188.971680 
	C876.485046,189.149033 879.492554,188.999802 882.981201,189.000000 
z"/>
<path fill="#FFFFFF" opacity="1.000000" stroke="none" 
	d="
M610.983521,102.219971 
	C608.491333,113.985313 606.454956,125.334236 606.888062,137.080338 
	C607.157410,144.383331 606.084106,151.726273 606.073120,159.051971 
	C606.062988,165.803726 606.990112,172.559067 606.934692,179.308151 
	C606.808228,194.728470 606.282410,210.145096 606.021790,225.564941 
	C605.895325,233.048569 606.304626,240.551285 605.932617,248.018509 
	C605.282349,261.071228 603.174500,273.521057 593.794800,283.929382 
	C585.094910,293.583313 577.470764,304.200592 569.130432,314.191254 
	C567.857422,315.716156 565.274170,316.147217 563.296936,317.084198 
	C562.531311,315.003540 561.088684,312.917999 561.103516,310.842926 
	C561.274170,287.090302 561.793457,263.340210 561.963928,239.587585 
	C562.130127,216.439697 561.593750,193.279816 562.155701,170.144394 
	C562.481323,156.738892 564.566956,143.378738 570.140076,130.954376 
	C571.227661,128.529770 573.720764,126.650726 575.791260,124.768280 
	C581.405579,119.663879 587.147461,114.699997 592.826172,109.666122 
	C596.147827,106.721611 599.370728,103.660591 602.774231,100.814964 
	C606.219055,97.934799 608.805481,98.330368 610.983521,102.219971 
z"/>
<path fill="#FFFFFF" opacity="1.000000" stroke="none" 
	d="
M1172.060547,181.572449 
	C1180.786011,190.078262 1187.743774,199.293274 1191.246948,210.761017 
	C1191.618042,211.975677 1191.952393,213.259155 1191.970703,214.515579 
	C1192.342896,240.071411 1192.624512,265.628662 1193.053101,291.183502 
	C1193.107056,294.398621 1193.541992,297.696014 1194.394531,300.791656 
	C1196.515625,308.493286 1202.248047,311.513214 1210.058594,309.494232 
	C1213.454590,308.616394 1216.857666,308.011963 1219.717285,313.061066 
	C1216.195312,315.833069 1212.791992,318.938049 1208.981079,321.416351 
	C1202.394775,325.699585 1195.879761,330.326447 1188.747559,333.481812 
	C1177.684570,338.376160 1172.721191,337.816803 1165.230591,327.498810 
	C1161.639282,322.551971 1157.666382,320.058929 1151.601318,319.800049 
	C1149.526367,319.711456 1147.234741,317.684021 1145.590332,316.005402 
	C1142.306030,312.652618 1143.169678,308.864899 1146.833008,306.871552 
	C1153.685669,303.142792 1155.437744,297.230316 1155.588501,290.245270 
	C1155.740723,283.193024 1155.945679,276.140564 1155.981934,269.087463 
	C1156.046021,256.602142 1155.531372,244.093338 1156.140137,231.637436 
	C1156.680786,220.575943 1153.974609,212.237488 1142.409302,208.777130 
	C1141.353882,208.461319 1140.453125,207.644455 1139.462769,207.091919 
	C1134.977905,204.589569 1134.422485,202.498520 1138.285400,199.360611 
	C1144.167969,194.582001 1150.475464,190.326706 1156.596436,185.841003 
	C1158.207031,184.660751 1159.702881,183.291992 1161.414551,182.288254 
	C1164.681152,180.372787 1168.072144,178.735031 1172.060547,181.572449 
z"/>
<path fill="#FFFFFF" opacity="1.000000" stroke="none" 
	d="
M491.085602,299.572906 
	C507.556946,306.400482 523.637512,313.171509 539.968994,319.270538 
	C544.531555,320.974487 549.834778,320.695374 556.227844,321.507538 
	C553.648315,324.383240 551.747864,326.689514 549.652039,328.802002 
	C544.142029,334.355804 539.231079,341.232330 530.933716,342.389923 
	C523.945374,343.364899 516.736938,342.832916 509.626312,342.816437 
	C507.535004,342.811584 505.451141,342.106995 503.353210,342.035828 
	C491.618225,341.637604 479.878326,341.107819 468.144409,341.196625 
	C465.865021,341.213867 462.577545,343.281708 461.625854,345.290161 
	C460.682007,347.282043 461.683502,350.550598 462.598969,352.968781 
	C463.514984,355.388428 466.952911,357.280640 463.493896,360.129181 
	C460.066406,362.951721 454.489655,362.915131 452.530121,359.939789 
	C446.872192,351.349091 442.332428,342.697815 442.708282,331.590912 
	C443.041779,321.736755 446.715698,314.468506 453.475586,307.950897 
	C460.683716,301.001129 469.345825,298.053986 479.099365,298.068420 
	C482.996735,298.074158 486.892944,298.841522 491.085602,299.572906 
z"/>
<path fill="#FFFFFF" opacity="1.000000" stroke="none" 
	d="
M1183.251099,156.250305 
	C1179.595459,160.612473 1174.813843,161.207428 1170.007935,161.407852 
	C1164.393677,161.642044 1161.985840,156.925980 1161.313721,153.061188 
	C1160.215942,146.748810 1155.298828,145.091583 1151.329346,142.047333 
	C1148.646729,139.990051 1145.983887,137.907104 1142.563843,135.255508 
	C1149.083008,130.996628 1154.487061,127.603386 1159.735352,123.984123 
	C1162.696045,121.942368 1165.399780,119.528114 1168.219849,117.282372 
	C1174.424072,112.341835 1177.232056,112.356285 1182.704712,118.309372 
	C1186.444824,122.377846 1189.914307,126.774231 1192.956787,131.385498 
	C1196.918335,137.389359 1196.199463,141.872223 1191.347534,147.172562 
	C1188.693726,150.071655 1186.122070,153.046158 1183.251099,156.250305 
z"/>
<path fill="#FFFFFF" opacity="1.000000" stroke="none" 
	d="
M100.284378,116.344879 
	C103.190979,113.427559 105.403442,109.542274 108.593712,108.408569 
	C119.160194,104.653610 125.220116,94.839539 134.847412,90.033791 
	C137.539200,88.690094 140.261215,87.251808 143.136749,86.482803 
	C145.250854,85.917435 147.637695,86.371918 149.903000,86.371918 
	C150.100952,87.025093 150.298904,87.678268 150.496841,88.331451 
	C148.210495,89.885483 146.127579,92.073868 143.602539,92.883682 
	C132.712189,96.376404 124.167351,102.913383 116.164261,110.974937 
	C110.691170,116.488022 103.477501,120.270996 97.062332,124.855934 
	C96.643326,125.155396 96.398468,125.698555 95.837509,126.438446 
	C95.318886,123.173538 96.969444,119.601685 100.284378,116.344879 
z"/>
<path fill="#FFFFFF" opacity="1.000000" stroke="none" 
	d="
M194.882401,75.575790 
	C197.111664,75.603760 199.066391,75.905876 201.182388,76.232910 
	C194.756104,86.006943 185.880280,86.342216 176.265060,84.061226 
	C174.664322,83.681488 173.840027,81.416618 174.903687,81.110390 
	C181.435196,79.229935 188.032471,77.577965 194.882401,75.575790 
z"/>
<path fill="#FFFFFF" opacity="1.000000" stroke="none" 
	d="
M1130.002441,156.973083 
	C1134.489136,153.665924 1136.752197,154.599991 1136.978394,159.540192 
	C1137.196411,164.303986 1137.397827,169.169205 1132.989136,172.473236 
	C1131.787109,173.374069 1130.236694,173.809814 1128.499756,174.620621 
	C1127.135498,168.254974 1126.694336,162.667084 1130.002441,156.973083 
z"/>
<path fill="#FFFFFF" opacity="1.000000" stroke="none" 
	d="
M1909.247070,255.352448 
	C1912.412109,253.692078 1915.289429,251.780563 1918.372437,251.353073 
	C1919.283081,251.226791 1921.247803,255.160950 1921.880127,257.467285 
	C1922.669067,260.343781 1919.720825,261.423157 1918.060303,260.819214 
	C1914.852661,259.652588 1912.023804,257.444672 1909.247070,255.352448 
z"/>
<path fill="#FFFFFF" opacity="1.000000" stroke="none" 
	d="
M1433.664307,164.747070 
	C1429.914062,166.348999 1426.481323,167.727570 1423.048462,169.106140 
	C1422.613403,168.364227 1422.178345,167.622314 1421.743286,166.880386 
	C1425.722900,163.865768 1429.640747,160.761459 1433.746704,157.930054 
	C1434.386230,157.489090 1436.287720,157.940674 1436.876831,158.615662 
	C1437.527710,159.361313 1437.864380,161.165527 1437.394165,161.921844 
	C1436.688110,163.057343 1435.160156,163.681900 1433.664307,164.747070 
z"/>
<path fill="#FFFFFF" opacity="1.000000" stroke="none" 
	d="
M310.012573,102.998138 
	C305.941406,103.270828 305.224915,100.520226 305.160034,97.987534 
	C305.126648,96.682640 306.548126,94.427856 307.622437,94.222115 
	C309.215729,93.916977 311.084534,95.050362 312.836060,95.571411 
	C312.036011,98.046478 311.235992,100.521553 310.012573,102.998138 
z"/>
<path fill="#FFFFFF" opacity="1.000000" stroke="none" 
	d="
M281.227661,231.419495 
	C285.297729,228.064148 287.530090,231.211182 288.645203,233.835358 
	C289.193176,235.124863 286.899384,237.621948 285.891602,239.572540 
	C284.595062,238.533707 282.944824,237.718842 282.104156,236.391327 
	C281.306183,235.131256 281.355621,233.334518 281.227661,231.419495 
z"/>
<path fill="#FFFFFF" opacity="1.000000" stroke="none" 
	d="
M1503.591064,252.135345 
	C1505.642822,252.864929 1507.319824,253.712387 1508.996582,254.559845 
	C1507.969482,256.042175 1507.087524,258.600891 1505.882202,258.763489 
	C1503.898682,259.031128 1501.705688,257.747253 1499.600952,257.117462 
	C1499.439087,256.420837 1499.277222,255.724197 1499.115356,255.027573 
	C1500.482300,254.102798 1501.849243,253.178009 1503.591064,252.135345 
z"/>
<path fill="#FFFFFF" opacity="1.000000" stroke="none" 
	d="
M1865.415527,245.562469 
	C1863.320557,249.215240 1861.153320,252.752914 1855.070923,252.682648 
	C1858.373291,249.542694 1858.932983,244.876770 1864.535767,244.958191 
	C1865.036621,245.061401 1865.150146,245.200592 1865.415527,245.562469 
z"/>
<path fill="#FFFFFF" opacity="1.000000" stroke="none" 
	d="
M280.022583,164.939468 
	C281.826355,163.026474 283.647461,161.520798 285.468567,160.015121 
	C286.092865,160.515045 286.717194,161.014984 287.341492,161.514908 
	C286.583466,163.156647 286.225525,165.469650 284.944214,166.233353 
	C283.867889,166.874832 281.715790,165.711227 280.022583,164.939468 
z"/>
<path fill="#000000" opacity="1.000000" stroke="none" 
	d="
M201.650620,296.221924 
	C202.898621,305.082397 202.953156,305.384308 194.432465,306.923431 
	C185.863541,308.471283 177.298111,306.500519 169.485168,303.550507 
	C155.982132,298.452179 145.147415,289.250671 136.337402,277.790588 
	C135.274017,276.407349 134.435913,274.810608 133.712448,273.213593 
	C131.159256,267.577515 131.315735,267.353668 137.253906,266.997192 
	C138.079926,266.947601 139.465103,267.129089 139.645599,266.751465 
	C143.249908,259.211334 151.732513,261.772278 157.385101,258.196930 
	C163.111389,254.574982 170.003952,252.795105 176.389404,250.217621 
	C183.086517,247.514328 184.911087,244.925964 184.982544,237.513474 
	C185.059601,229.517075 184.916763,221.518311 185.015717,213.522400 
	C185.304855,190.158661 185.512009,166.791656 186.137787,143.436310 
	C186.255127,139.057129 187.772385,134.576736 189.370255,130.422546 
	C190.522095,127.427979 193.613892,126.179344 196.826477,127.076553 
	C200.580002,128.124832 203.003052,130.576385 203.001495,134.804092 
	C202.996918,147.299637 202.869934,159.796906 203.036957,172.290222 
	C203.200729,184.540649 204.084595,196.793457 203.896896,209.033630 
	C203.647797,225.277817 202.548965,241.507095 202.036087,257.749756 
	C201.634918,270.454285 201.569855,283.169495 201.650620,296.221924 
z"/>
<path fill="#000000" opacity="1.000000" stroke="none" 
	d="
M145.338058,152.787659 
	C146.082596,162.477173 146.578186,171.850555 146.989258,181.227631 
	C147.372864,189.977707 147.973724,198.733292 147.929688,207.483688 
	C147.859634,221.403824 147.566284,235.333847 146.838669,249.232010 
	C146.652908,252.780273 144.480240,256.224518 143.274673,259.566223 
	C139.919266,260.021942 136.309570,261.196625 132.918106,260.742310 
	C130.486542,260.416595 127.226067,258.398895 126.304482,256.279724 
	C124.222481,251.492218 122.338661,246.204071 122.188789,241.066650 
	C121.692940,224.069580 121.508087,207.028061 122.229889,190.047211 
	C122.545334,182.626099 124.512604,174.982910 127.240059,168.033295 
	C130.392563,160.000626 135.888092,153.287781 144.703735,149.662262 
	C144.854523,150.878433 144.953384,151.675766 145.338058,152.787659 
z"/>
<path fill="#000000" opacity="1.000000" stroke="none" 
	d="
M1278.000000,251.012650 
	C1277.666626,239.448593 1277.163574,228.383041 1277.100586,217.314987 
	C1277.080933,213.878983 1278.254517,210.436188 1278.998413,206.357590 
	C1281.721558,207.546204 1284.173218,207.964783 1285.678711,209.385757 
	C1292.308350,215.643539 1300.834717,218.383759 1308.750000,222.200424 
	C1313.257202,224.373657 1314.949707,227.659546 1315.018677,232.361649 
	C1315.307617,252.080475 1315.874878,271.798309 1315.869751,291.516388 
	C1315.868164,297.235809 1314.300415,302.954834 1313.522339,308.191467 
	C1308.911499,306.681000 1304.409302,306.034790 1300.835815,303.861450 
	C1293.580688,299.449280 1286.634888,294.451965 1280.009521,289.137451 
	C1278.433716,287.873535 1278.134766,284.419220 1278.085205,281.955627 
	C1277.881470,271.810669 1278.000000,261.659241 1278.000000,251.012650 
z"/>
</svg>